<?xml version="1.0" standalone="no"?>
<!DOCTYPE svg PUBLIC "-//W3C//DTD SVG 20010904//EN"
 "http://www.w3.org/TR/2001/REC-SVG-20010904/DTD/svg10.dtd">
<svg version="1.0" xmlns="http://www.w3.org/2000/svg"
 width="512.000000pt" height="512.000000pt" viewBox="0 0 512.000000 512.000000"
 preserveAspectRatio="xMidYMid meet">
<metadata>
Created by potrace 1.11, written by Peter Selinger 2001-2013
</metadata>
<g transform="translate(0.000000,512.000000) scale(0.100000,-0.100000)"
fill="#000000" stroke="none">
<path d="M0 2560 l0 -2560 2560 0 2560 0 0 2560 0 2560 -2560 0 -2560 0 0
-2560z m2200 1328 c0 -13 -9 -72 -19 -133 -11 -60 -25 -154 -32 -207 l-12 -98
-531 -2 -531 -3 -3 -322 -2 -323 470 0 470 0 0 -225 0 -225 -470 0 -470 0 0
-345 0 -345 565 0 565 0 0 -230 0 -230 -885 0 -885 0 0 1355 0 1355 885 0 885
0 0 -22z m2484 -20 c-3 -24 -9 -65 -14 -93 -5 -27 -16 -111 -25 -185 -9 -74
-18 -145 -21 -157 l-4 -23 -360 0 -360 0 0 -1105 0 -1105 -326 0 -325 0 3
1105 3 1105 -382 0 -383 0 0 250 0 250 1100 0 1100 0 -6 -42z"/>
</g>
</svg>
